<?xml version="1.0" encoding="UTF-8" standalone="no"?><!DOCTYPE svg PUBLIC "-//W3C//DTD SVG 1.1//EN" "http://www.w3.org/Graphics/SVG/1.1/DTD/svg11.dtd"><svg width="2012px" height="946px" version="1.1" xmlns="http://www.w3.org/2000/svg" xmlns:xlink="http://www.w3.org/1999/xlink" xml:space="preserve" xmlns:serif="http://www.serif.com/" style="fill-rule:evenodd;clip-rule:evenodd;stroke-linejoin:round;stroke-miterlimit:1.5;"><g transform="matrix(1,0,0,1,3064.4,-3104.68)"><g transform="matrix(1,0,0,1,-3325.94,1431.76)"><g transform="matrix(0.526527,0,0,0.526527,412.777,1188.41)"><g transform="matrix(203.483,0,0,203.483,394.919,2712.62)"><path d="M0.438,-0.577C0.424,-0.596 0.405,-0.612 0.381,-0.625C0.357,-0.637 0.33,-0.643 0.3,-0.643C0.284,-0.643 0.268,-0.641 0.252,-0.637C0.235,-0.632 0.22,-0.625 0.207,-0.616C0.194,-0.606 0.183,-0.594 0.175,-0.58C0.166,-0.565 0.162,-0.548 0.162,-0.528C0.162,-0.509 0.166,-0.493 0.174,-0.48C0.181,-0.467 0.192,-0.456 0.205,-0.447C0.218,-0.438 0.233,-0.43 0.251,-0.424C0.268,-0.417 0.287,-0.411 0.307,-0.404C0.331,-0.397 0.355,-0.388 0.38,-0.379C0.405,-0.37 0.427,-0.357 0.447,-0.342C0.467,-0.327 0.483,-0.308 0.496,-0.285C0.509,-0.262 0.515,-0.232 0.515,-0.197C0.515,-0.16 0.508,-0.129 0.495,-0.102C0.481,-0.075 0.463,-0.052 0.44,-0.035C0.417,-0.017 0.391,-0.004 0.362,0.005C0.332,0.014 0.301,0.018 0.27,0.018C0.225,0.018 0.182,0.009 0.141,-0.008C0.099,-0.025 0.064,-0.051 0.037,-0.085L0.114,-0.15C0.131,-0.125 0.153,-0.105 0.181,-0.09C0.209,-0.075 0.239,-0.067 0.272,-0.067C0.289,-0.067 0.305,-0.069 0.322,-0.074C0.339,-0.079 0.354,-0.086 0.368,-0.096C0.381,-0.106 0.392,-0.119 0.401,-0.134C0.41,-0.149 0.414,-0.167 0.414,-0.188C0.414,-0.209 0.41,-0.227 0.401,-0.242C0.392,-0.256 0.379,-0.268 0.364,-0.278C0.349,-0.288 0.331,-0.297 0.311,-0.304C0.29,-0.311 0.269,-0.318 0.246,-0.325C0.223,-0.332 0.201,-0.34 0.179,-0.35C0.157,-0.359 0.137,-0.372 0.12,-0.387C0.103,-0.402 0.089,-0.42 0.078,-0.442C0.067,-0.464 0.062,-0.491 0.062,-0.524C0.062,-0.559 0.069,-0.59 0.084,-0.615C0.098,-0.64 0.117,-0.661 0.14,-0.678C0.163,-0.695 0.189,-0.707 0.218,-0.715C0.247,-0.722 0.276,-0.726 0.305,-0.726C0.346,-0.726 0.385,-0.719 0.421,-0.704C0.457,-0.689 0.486,-0.67 0.508,-0.645L0.438,-0.577Z" style="fill:rgb(147,149,152);fill-rule:nonzero;"/></g><g transform="matrix(203.483,0,0,203.483,551.398,2712.62)"><path d="M0.115,-0L0.005,-0L0.312,-0.708L0.402,-0.708L0.706,-0L0.594,-0L0.522,-0.174L0.186,-0.174L0.115,-0ZM0.221,-0.261L0.486,-0.261L0.354,-0.593L0.221,-0.261Z" style="fill:rgb(147,149,152);fill-rule:nonzero;"/></g><g transform="matrix(203.483,0,0,203.483,724.562,2712.62)"><path d="M0.334,-0L0.235,-0L0.235,-0.621L0.008,-0.621L0.008,-0.708L0.561,-0.708L0.561,-0.621L0.334,-0.621L0.334,-0Z" style="fill:rgb(147,149,152);fill-rule:nonzero;"/></g><g transform="matrix(203.483,0,0,203.483,881.041,2712.62)"><path d="M0.086,-0.708L0.185,-0.708L0.185,-0.412L0.543,-0.412L0.543,-0.708L0.643,-0.708L0.643,-0L0.543,-0L0.543,-0.324L0.185,-0.324L0.185,-0L0.086,-0L0.086,-0.708Z" style="fill:rgb(147,149,152);fill-rule:nonzero;"/></g><g transform="matrix(203.483,0,0,203.483,1070.08,2712.62)"><path d="M0.8,-0.355C0.8,-0.3 0.791,-0.25 0.772,-0.205C0.752,-0.159 0.726,-0.12 0.693,-0.087C0.66,-0.054 0.62,-0.028 0.574,-0.01C0.528,0.009 0.478,0.018 0.424,0.018C0.37,0.018 0.32,0.009 0.275,-0.01C0.229,-0.028 0.189,-0.054 0.156,-0.087C0.123,-0.12 0.097,-0.159 0.078,-0.205C0.059,-0.25 0.05,-0.3 0.05,-0.355C0.05,-0.41 0.059,-0.461 0.078,-0.507C0.097,-0.552 0.123,-0.591 0.156,-0.624C0.189,-0.656 0.229,-0.681 0.275,-0.699C0.32,-0.717 0.37,-0.726 0.424,-0.726C0.478,-0.726 0.528,-0.717 0.574,-0.699C0.62,-0.681 0.66,-0.656 0.693,-0.624C0.726,-0.591 0.752,-0.552 0.772,-0.507C0.791,-0.461 0.8,-0.41 0.8,-0.355ZM0.693,-0.355C0.693,-0.394 0.687,-0.43 0.674,-0.465C0.661,-0.499 0.643,-0.529 0.62,-0.555C0.597,-0.581 0.568,-0.602 0.536,-0.617C0.502,-0.632 0.465,-0.639 0.424,-0.639C0.383,-0.639 0.346,-0.632 0.314,-0.617C0.281,-0.602 0.253,-0.581 0.23,-0.555C0.207,-0.529 0.189,-0.499 0.176,-0.465C0.163,-0.43 0.157,-0.394 0.157,-0.355C0.157,-0.316 0.163,-0.279 0.176,-0.244C0.189,-0.209 0.207,-0.179 0.23,-0.154C0.253,-0.128 0.281,-0.108 0.314,-0.093C0.347,-0.078 0.383,-0.071 0.424,-0.071C0.465,-0.071 0.502,-0.078 0.535,-0.093C0.568,-0.108 0.597,-0.128 0.62,-0.154C0.643,-0.179 0.661,-0.209 0.674,-0.244C0.687,-0.279 0.693,-0.316 0.693,-0.355Z" style="fill:rgb(147,149,152);fill-rule:nonzero;"/></g><g transform="matrix(203.483,0,0,203.483,1283.53,2712.62)"><path d="M0.585,-0.142L0.587,-0.142L0.587,-0.708L0.686,-0.708L0.686,-0L0.561,-0L0.187,-0.578L0.185,-0.578L0.185,-0L0.086,-0L0.086,-0.708L0.215,-0.708L0.585,-0.142Z" style="fill:rgb(147,149,152);fill-rule:nonzero;"/></g><g transform="matrix(203.483,0,0,203.483,1572.88,2712.62)"><path d="M0.086,-0.708L0.33,-0.708C0.357,-0.708 0.383,-0.705 0.41,-0.699C0.437,-0.693 0.46,-0.683 0.482,-0.669C0.503,-0.655 0.52,-0.637 0.533,-0.614C0.546,-0.591 0.552,-0.563 0.552,-0.529C0.552,-0.49 0.541,-0.457 0.518,-0.43C0.495,-0.403 0.465,-0.385 0.428,-0.375L0.428,-0.373C0.451,-0.37 0.472,-0.365 0.491,-0.356C0.51,-0.347 0.527,-0.335 0.541,-0.32C0.555,-0.305 0.566,-0.288 0.574,-0.268C0.581,-0.248 0.585,-0.226 0.585,-0.201C0.585,-0.167 0.578,-0.137 0.564,-0.112C0.55,-0.087 0.531,-0.066 0.507,-0.05C0.483,-0.033 0.455,-0.021 0.423,-0.013C0.39,-0.004 0.356,-0 0.319,-0L0.086,-0L0.086,-0.708ZM0.185,-0.409L0.314,-0.409C0.333,-0.409 0.351,-0.411 0.368,-0.416C0.385,-0.42 0.399,-0.427 0.412,-0.436C0.425,-0.444 0.435,-0.456 0.442,-0.47C0.449,-0.483 0.453,-0.5 0.453,-0.519C0.453,-0.557 0.439,-0.584 0.411,-0.601C0.383,-0.617 0.345,-0.625 0.298,-0.625L0.185,-0.625L0.185,-0.409ZM0.185,-0.084L0.309,-0.084C0.33,-0.084 0.351,-0.086 0.372,-0.09C0.393,-0.093 0.412,-0.1 0.429,-0.109C0.446,-0.118 0.459,-0.131 0.47,-0.147C0.48,-0.162 0.485,-0.182 0.485,-0.206C0.485,-0.248 0.471,-0.278 0.442,-0.297C0.413,-0.316 0.372,-0.325 0.318,-0.325L0.185,-0.325L0.185,-0.084Z" style="fill:rgb(147,149,152);fill-rule:nonzero;"/></g><g transform="matrix(203.483,0,0,203.483,1744.22,2712.62)"><path d="M0.115,-0L0.005,-0L0.312,-0.708L0.402,-0.708L0.706,-0L0.594,-0L0.522,-0.174L0.186,-0.174L0.115,-0ZM0.221,-0.261L0.486,-0.261L0.354,-0.593L0.221,-0.261Z" style="fill:rgb(147,149,152);fill-rule:nonzero;"/></g><g transform="matrix(203.483,0,0,203.483,1929.59,2712.62)"><path d="M0.585,-0.142L0.587,-0.142L0.587,-0.708L0.686,-0.708L0.686,-0L0.561,-0L0.187,-0.578L0.185,-0.578L0.185,-0L0.086,-0L0.086,-0.708L0.215,-0.708L0.585,-0.142Z" style="fill:rgb(147,149,152);fill-rule:nonzero;"/></g><g transform="matrix(203.483,0,0,203.483,2127.38,2712.62)"><path d="M0.62,-0.562C0.599,-0.585 0.572,-0.604 0.539,-0.618C0.505,-0.632 0.469,-0.639 0.428,-0.639C0.387,-0.639 0.349,-0.632 0.316,-0.617C0.283,-0.602 0.254,-0.581 0.231,-0.555C0.208,-0.529 0.19,-0.499 0.177,-0.465C0.164,-0.43 0.158,-0.394 0.158,-0.355C0.158,-0.316 0.164,-0.279 0.177,-0.244C0.19,-0.209 0.208,-0.179 0.231,-0.154C0.254,-0.128 0.283,-0.108 0.317,-0.093C0.351,-0.078 0.389,-0.071 0.431,-0.071C0.464,-0.071 0.495,-0.074 0.523,-0.08C0.551,-0.086 0.575,-0.095 0.596,-0.106L0.596,-0.303L0.439,-0.303L0.439,-0.387L0.694,-0.387L0.694,-0.044C0.657,-0.024 0.616,-0.009 0.572,0.002C0.528,0.013 0.48,0.018 0.428,0.018C0.373,0.018 0.322,0.009 0.276,-0.01C0.229,-0.028 0.189,-0.054 0.156,-0.087C0.123,-0.12 0.097,-0.159 0.078,-0.205C0.059,-0.25 0.05,-0.3 0.05,-0.355C0.05,-0.41 0.059,-0.461 0.079,-0.507C0.097,-0.552 0.124,-0.591 0.158,-0.624C0.191,-0.656 0.231,-0.681 0.277,-0.699C0.323,-0.717 0.373,-0.726 0.427,-0.726C0.484,-0.726 0.534,-0.718 0.579,-0.701C0.623,-0.684 0.66,-0.662 0.689,-0.634L0.62,-0.562Z" style="fill:rgb(147,149,152);fill-rule:nonzero;"/></g><g transform="matrix(203.483,0,0,203.483,2326.38,2712.62)"><path d="M0.185,-0.396L0.187,-0.396L0.503,-0.708L0.64,-0.708L0.296,-0.384L0.661,-0L0.519,-0L0.187,-0.366L0.185,-0.366L0.185,-0L0.086,-0L0.086,-0.708L0.185,-0.708L0.185,-0.396Z" style="fill:rgb(147,149,152);fill-rule:nonzero;"/></g><g transform="matrix(203.483,0,0,203.483,2495.48,2712.62)"><path d="M0.8,-0.355C0.8,-0.3 0.791,-0.25 0.772,-0.205C0.752,-0.159 0.726,-0.12 0.693,-0.087C0.66,-0.054 0.62,-0.028 0.574,-0.01C0.528,0.009 0.478,0.018 0.424,0.018C0.37,0.018 0.32,0.009 0.275,-0.01C0.229,-0.028 0.189,-0.054 0.156,-0.087C0.123,-0.12 0.097,-0.159 0.078,-0.205C0.059,-0.25 0.05,-0.3 0.05,-0.355C0.05,-0.41 0.059,-0.461 0.078,-0.507C0.097,-0.552 0.123,-0.591 0.156,-0.624C0.189,-0.656 0.229,-0.681 0.275,-0.699C0.32,-0.717 0.37,-0.726 0.424,-0.726C0.478,-0.726 0.528,-0.717 0.574,-0.699C0.62,-0.681 0.66,-0.656 0.693,-0.624C0.726,-0.591 0.752,-0.552 0.772,-0.507C0.791,-0.461 0.8,-0.41 0.8,-0.355ZM0.693,-0.355C0.693,-0.394 0.687,-0.43 0.674,-0.465C0.661,-0.499 0.643,-0.529 0.62,-0.555C0.597,-0.581 0.568,-0.602 0.536,-0.617C0.502,-0.632 0.465,-0.639 0.424,-0.639C0.383,-0.639 0.346,-0.632 0.314,-0.617C0.281,-0.602 0.253,-0.581 0.23,-0.555C0.207,-0.529 0.189,-0.499 0.176,-0.465C0.163,-0.43 0.157,-0.394 0.157,-0.355C0.157,-0.316 0.163,-0.279 0.176,-0.244C0.189,-0.209 0.207,-0.179 0.23,-0.154C0.253,-0.128 0.281,-0.108 0.314,-0.093C0.347,-0.078 0.383,-0.071 0.424,-0.071C0.465,-0.071 0.502,-0.078 0.535,-0.093C0.568,-0.108 0.597,-0.128 0.62,-0.154C0.643,-0.179 0.661,-0.209 0.674,-0.244C0.687,-0.279 0.693,-0.316 0.693,-0.355Z" style="fill:rgb(147,149,152);fill-rule:nonzero;"/></g><g transform="matrix(203.483,0,0,203.483,2708.93,2712.62)"><path d="M0.185,-0.396L0.187,-0.396L0.503,-0.708L0.64,-0.708L0.296,-0.384L0.661,-0L0.519,-0L0.187,-0.366L0.185,-0.366L0.185,-0L0.086,-0L0.086,-0.708L0.185,-0.708L0.185,-0.396Z" style="fill:rgb(147,149,152);fill-rule:nonzero;"/></g></g><g transform="matrix(0.77255,0,0,0.595668,-105.25,801.376)"><rect x="474.77" y="2468.58" width="2603.76" height="338.61" style="fill:rgb(147,149,152);"/></g><g transform="matrix(0.979234,0,0,0.979234,-521.997,-234.493)"><g transform="matrix(141.687,0,0,141.687,836.213,2712.62)"><path d="M0.086,-0.708L0.33,-0.708C0.357,-0.708 0.383,-0.705 0.41,-0.699C0.437,-0.693 0.46,-0.683 0.482,-0.669C0.503,-0.655 0.52,-0.637 0.533,-0.614C0.546,-0.591 0.552,-0.563 0.552,-0.529C0.552,-0.49 0.541,-0.457 0.518,-0.43C0.495,-0.403 0.465,-0.385 0.428,-0.375L0.428,-0.373C0.451,-0.37 0.472,-0.365 0.491,-0.356C0.51,-0.347 0.527,-0.335 0.541,-0.32C0.555,-0.305 0.566,-0.288 0.574,-0.268C0.581,-0.248 0.585,-0.226 0.585,-0.201C0.585,-0.167 0.578,-0.137 0.564,-0.112C0.55,-0.087 0.531,-0.066 0.507,-0.05C0.483,-0.033 0.455,-0.021 0.423,-0.013C0.39,-0.004 0.356,-0 0.319,-0L0.086,-0L0.086,-0.708ZM0.185,-0.409L0.314,-0.409C0.333,-0.409 0.351,-0.411 0.368,-0.416C0.385,-0.42 0.399,-0.427 0.412,-0.436C0.425,-0.444 0.435,-0.456 0.442,-0.47C0.449,-0.483 0.453,-0.5 0.453,-0.519C0.453,-0.557 0.439,-0.584 0.411,-0.601C0.383,-0.617 0.345,-0.625 0.298,-0.625L0.185,-0.625L0.185,-0.409ZM0.185,-0.084L0.309,-0.084C0.33,-0.084 0.351,-0.086 0.372,-0.09C0.393,-0.093 0.412,-0.1 0.429,-0.109C0.446,-0.118 0.459,-0.131 0.47,-0.147C0.48,-0.162 0.485,-0.182 0.485,-0.206C0.485,-0.248 0.471,-0.278 0.442,-0.297C0.413,-0.316 0.372,-0.325 0.318,-0.325L0.185,-0.325L0.185,-0.084Z" style="fill:white;fill-rule:nonzero;"/></g><g transform="matrix(141.687,0,0,141.687,1005.1,2712.62)"><path d="M0.185,-0.088L0.555,-0.088L0.555,-0L0.086,-0L0.086,-0.708L0.54,-0.708L0.54,-0.621L0.185,-0.621L0.185,-0.409L0.519,-0.409L0.519,-0.324L0.185,-0.324L0.185,-0.088Z" style="fill:white;fill-rule:nonzero;"/></g><g transform="matrix(141.687,0,0,141.687,1168.19,2712.62)"><path d="M0.115,-0L0.005,-0L0.312,-0.708L0.402,-0.708L0.706,-0L0.594,-0L0.522,-0.174L0.186,-0.174L0.115,-0ZM0.221,-0.261L0.486,-0.261L0.354,-0.593L0.221,-0.261Z" style="fill:white;fill-rule:nonzero;"/></g><g transform="matrix(141.687,0,0,141.687,1345.01,2712.62)"><path d="M0.356,0.018C0.309,0.018 0.269,0.01 0.234,-0.006C0.199,-0.021 0.171,-0.042 0.148,-0.068C0.125,-0.094 0.109,-0.124 0.098,-0.158C0.087,-0.191 0.081,-0.226 0.081,-0.262L0.081,-0.708L0.18,-0.708L0.18,-0.268C0.18,-0.244 0.183,-0.22 0.189,-0.197C0.195,-0.173 0.205,-0.152 0.219,-0.133C0.232,-0.114 0.25,-0.099 0.273,-0.088C0.295,-0.077 0.323,-0.071 0.356,-0.071C0.389,-0.071 0.416,-0.077 0.439,-0.088C0.462,-0.099 0.48,-0.114 0.494,-0.133C0.507,-0.152 0.517,-0.173 0.523,-0.197C0.529,-0.22 0.532,-0.244 0.532,-0.268L0.532,-0.708L0.631,-0.708L0.631,-0.262C0.631,-0.226 0.626,-0.191 0.615,-0.158C0.604,-0.124 0.587,-0.094 0.564,-0.068C0.541,-0.042 0.513,-0.021 0.478,-0.006C0.443,0.01 0.403,0.018 0.356,0.018Z" style="fill:white;fill-rule:nonzero;"/></g><g transform="matrix(141.687,0,0,141.687,1523.82,2712.62)"><path d="M0.334,-0L0.235,-0L0.235,-0.621L0.008,-0.621L0.008,-0.708L0.561,-0.708L0.561,-0.621L0.334,-0.621L0.334,-0Z" style="fill:white;fill-rule:nonzero;"/></g><g transform="matrix(141.687,0,0,141.687,1680.67,2712.62)"><path d="M0.362,-0L0.262,-0L0.262,-0.306L-0.003,-0.708L0.119,-0.708L0.315,-0.388L0.512,-0.708L0.627,-0.708L0.362,-0.306L0.362,-0Z" style="fill:white;fill-rule:nonzero;"/></g><g transform="matrix(141.687,0,0,141.687,1847.01,2712.62)"><path d="M0.55,-0.167L0.712,-0L0.581,-0L0.493,-0.093C0.466,-0.06 0.436,-0.034 0.403,-0.015C0.369,0.004 0.327,0.013 0.278,0.013C0.247,0.013 0.218,0.009 0.19,-0C0.162,-0.009 0.137,-0.022 0.117,-0.039C0.096,-0.056 0.079,-0.077 0.067,-0.102C0.054,-0.127 0.048,-0.155 0.048,-0.188C0.048,-0.215 0.053,-0.239 0.062,-0.26C0.07,-0.28 0.082,-0.299 0.097,-0.316C0.112,-0.333 0.129,-0.347 0.148,-0.36C0.167,-0.373 0.187,-0.384 0.207,-0.393C0.184,-0.416 0.165,-0.441 0.15,-0.468C0.134,-0.494 0.126,-0.523 0.126,-0.555C0.126,-0.584 0.131,-0.609 0.142,-0.63C0.152,-0.651 0.166,-0.669 0.184,-0.684C0.201,-0.698 0.221,-0.708 0.244,-0.716C0.267,-0.723 0.29,-0.726 0.315,-0.726C0.34,-0.726 0.363,-0.723 0.385,-0.716C0.407,-0.708 0.426,-0.698 0.443,-0.684C0.46,-0.67 0.473,-0.653 0.483,-0.632C0.493,-0.611 0.498,-0.587 0.498,-0.56C0.498,-0.537 0.494,-0.516 0.486,-0.497C0.477,-0.478 0.466,-0.461 0.452,-0.446C0.438,-0.431 0.422,-0.417 0.404,-0.405C0.385,-0.393 0.366,-0.382 0.346,-0.373L0.487,-0.228L0.576,-0.378L0.686,-0.378L0.55,-0.167ZM0.407,-0.558C0.407,-0.583 0.399,-0.605 0.382,-0.622C0.365,-0.639 0.343,-0.648 0.316,-0.648C0.289,-0.648 0.266,-0.639 0.248,-0.622C0.23,-0.605 0.221,-0.582 0.221,-0.554C0.221,-0.543 0.223,-0.531 0.228,-0.52C0.232,-0.509 0.237,-0.498 0.244,-0.487C0.251,-0.476 0.258,-0.465 0.267,-0.456C0.275,-0.447 0.283,-0.438 0.291,-0.431C0.306,-0.438 0.32,-0.445 0.334,-0.453C0.348,-0.461 0.36,-0.47 0.371,-0.481C0.382,-0.492 0.39,-0.503 0.397,-0.516C0.404,-0.529 0.407,-0.543 0.407,-0.558ZM0.262,-0.332C0.227,-0.317 0.2,-0.299 0.179,-0.277C0.158,-0.255 0.148,-0.226 0.148,-0.19C0.148,-0.171 0.152,-0.154 0.159,-0.139C0.166,-0.124 0.176,-0.111 0.189,-0.1C0.201,-0.089 0.215,-0.081 0.231,-0.076C0.247,-0.07 0.263,-0.067 0.28,-0.067C0.314,-0.067 0.343,-0.075 0.366,-0.09C0.389,-0.105 0.411,-0.127 0.43,-0.156L0.262,-0.332Z" style="fill:white;fill-rule:nonzero;"/></g><g transform="matrix(141.687,0,0,141.687,2027.37,2712.62)"><path d="M0.438,-0.577C0.424,-0.596 0.405,-0.612 0.381,-0.625C0.357,-0.637 0.33,-0.643 0.3,-0.643C0.284,-0.643 0.268,-0.641 0.252,-0.637C0.235,-0.632 0.22,-0.625 0.207,-0.616C0.194,-0.606 0.183,-0.594 0.175,-0.58C0.166,-0.565 0.162,-0.548 0.162,-0.528C0.162,-0.509 0.166,-0.493 0.174,-0.48C0.181,-0.467 0.192,-0.456 0.205,-0.447C0.218,-0.438 0.233,-0.43 0.251,-0.424C0.268,-0.417 0.287,-0.411 0.307,-0.404C0.331,-0.397 0.355,-0.388 0.38,-0.379C0.405,-0.37 0.427,-0.357 0.447,-0.342C0.467,-0.327 0.483,-0.308 0.496,-0.285C0.509,-0.262 0.515,-0.232 0.515,-0.197C0.515,-0.16 0.508,-0.129 0.495,-0.102C0.481,-0.075 0.463,-0.052 0.44,-0.035C0.417,-0.017 0.391,-0.004 0.362,0.005C0.332,0.014 0.301,0.018 0.27,0.018C0.225,0.018 0.182,0.009 0.141,-0.008C0.099,-0.025 0.064,-0.051 0.037,-0.085L0.114,-0.15C0.131,-0.125 0.153,-0.105 0.181,-0.09C0.209,-0.075 0.239,-0.067 0.272,-0.067C0.289,-0.067 0.305,-0.069 0.322,-0.074C0.339,-0.079 0.354,-0.086 0.368,-0.096C0.381,-0.106 0.392,-0.119 0.401,-0.134C0.41,-0.149 0.414,-0.167 0.414,-0.188C0.414,-0.209 0.41,-0.227 0.401,-0.242C0.392,-0.256 0.379,-0.268 0.364,-0.278C0.349,-0.288 0.331,-0.297 0.311,-0.304C0.29,-0.311 0.269,-0.318 0.246,-0.325C0.223,-0.332 0.201,-0.34 0.179,-0.35C0.157,-0.359 0.137,-0.372 0.12,-0.387C0.103,-0.402 0.089,-0.42 0.078,-0.442C0.067,-0.464 0.062,-0.491 0.062,-0.524C0.062,-0.559 0.069,-0.59 0.084,-0.615C0.098,-0.64 0.117,-0.661 0.14,-0.678C0.163,-0.695 0.189,-0.707 0.218,-0.715C0.247,-0.722 0.276,-0.726 0.305,-0.726C0.346,-0.726 0.385,-0.719 0.421,-0.704C0.457,-0.689 0.486,-0.67 0.508,-0.645L0.438,-0.577Z" style="fill:white;fill-rule:nonzero;"/></g><g transform="matrix(141.687,0,0,141.687,2185.92,2712.62)"><path d="M0.115,-0L0.005,-0L0.312,-0.708L0.402,-0.708L0.706,-0L0.594,-0L0.522,-0.174L0.186,-0.174L0.115,-0ZM0.221,-0.261L0.486,-0.261L0.354,-0.593L0.221,-0.261Z" style="fill:white;fill-rule:nonzero;"/></g><g transform="matrix(141.687,0,0,141.687,2364.59,2712.62)"><path d="M0.185,-0.088L0.501,-0.088L0.501,-0L0.086,-0L0.086,-0.708L0.185,-0.708L0.185,-0.088Z" style="fill:white;fill-rule:nonzero;"/></g><g transform="matrix(141.687,0,0,141.687,2510.67,2712.62)"><path d="M0.8,-0.355C0.8,-0.3 0.791,-0.25 0.772,-0.205C0.752,-0.159 0.726,-0.12 0.693,-0.087C0.66,-0.054 0.62,-0.028 0.574,-0.01C0.528,0.009 0.478,0.018 0.424,0.018C0.37,0.018 0.32,0.009 0.275,-0.01C0.229,-0.028 0.189,-0.054 0.156,-0.087C0.123,-0.12 0.097,-0.159 0.078,-0.205C0.059,-0.25 0.05,-0.3 0.05,-0.355C0.05,-0.41 0.059,-0.461 0.078,-0.507C0.097,-0.552 0.123,-0.591 0.156,-0.624C0.189,-0.656 0.229,-0.681 0.275,-0.699C0.32,-0.717 0.37,-0.726 0.424,-0.726C0.478,-0.726 0.528,-0.717 0.574,-0.699C0.62,-0.681 0.66,-0.656 0.693,-0.624C0.726,-0.591 0.752,-0.552 0.772,-0.507C0.791,-0.461 0.8,-0.41 0.8,-0.355ZM0.693,-0.355C0.693,-0.394 0.687,-0.43 0.674,-0.465C0.661,-0.499 0.643,-0.529 0.62,-0.555C0.597,-0.581 0.568,-0.602 0.536,-0.617C0.502,-0.632 0.465,-0.639 0.424,-0.639C0.383,-0.639 0.346,-0.632 0.314,-0.617C0.281,-0.602 0.253,-0.581 0.23,-0.555C0.207,-0.529 0.189,-0.499 0.176,-0.465C0.163,-0.43 0.157,-0.394 0.157,-0.355C0.157,-0.316 0.163,-0.279 0.176,-0.244C0.189,-0.209 0.207,-0.179 0.23,-0.154C0.253,-0.128 0.281,-0.108 0.314,-0.093C0.347,-0.078 0.383,-0.071 0.424,-0.071C0.465,-0.071 0.502,-0.078 0.535,-0.093C0.568,-0.108 0.597,-0.128 0.62,-0.154C0.643,-0.179 0.661,-0.209 0.674,-0.244C0.687,-0.279 0.693,-0.316 0.693,-0.355Z" style="fill:white;fill-rule:nonzero;"/></g><g transform="matrix(141.687,0,0,141.687,2708.89,2712.62)"><path d="M0.585,-0.142L0.587,-0.142L0.587,-0.708L0.686,-0.708L0.686,-0L0.561,-0L0.187,-0.578L0.185,-0.578L0.185,-0L0.086,-0L0.086,-0.708L0.215,-0.708L0.585,-0.142Z" style="fill:white;fill-rule:nonzero;"/></g></g><g transform="matrix(1,0,0,1,-58.3565,0)"><g transform="matrix(0.833714,0,0,0.833714,220.266,381.049)"><g transform="matrix(1,0,0,1,-412.085,-781.094)"><path d="M746.421,2336.88L746.421,2918.52" style="fill:none;stroke:rgb(147,149,152);stroke-width:12.49px;"/></g><g transform="matrix(1,0,0,1,248.105,-781.094)"><path d="M746.421,2336.88L746.421,2918.52" style="fill:none;stroke:rgb(147,149,152);stroke-width:12.49px;"/></g><g transform="matrix(1,0,0,1,908.295,-781.094)"><path d="M746.421,2336.88L746.421,2918.52" style="fill:none;stroke:rgb(147,149,152);stroke-width:12.49px;"/></g><g transform="matrix(1,0,0,1,1568.48,-781.094)"><path d="M746.421,2336.88L746.421,2918.52" style="fill:none;stroke:rgb(147,149,152);stroke-width:12.49px;"/></g></g><g transform="matrix(0.833714,0,0,0.833714,220.266,381.049)"><g transform="matrix(1.29776,0,0,1.29776,-2212.03,-407.577)"><path d="M3433.74,1518.58C3433.74,1521.96 3430.15,1523.65 3422.96,1523.65C3399.72,1524.08 3385.35,1528.09 3379.86,1535.7C3374.78,1540.35 3356.61,1576.27 3325.34,1643.47C3311.39,1673.47 3298.29,1699.89 3286.03,1722.71C3277.58,1738.35 3272.72,1749.02 3271.45,1754.72C3270.19,1760.43 3269.55,1772.79 3269.55,1791.81L3269.55,1911.62C3269.55,1925.57 3271.35,1933.81 3274.94,1936.34C3278.53,1938.88 3291.11,1940.78 3312.66,1942.05C3324.07,1942.89 3329.78,1945.01 3329.78,1948.39C3329.78,1951.77 3326.82,1953.46 3320.9,1953.46L3313.29,1953.46L3224.54,1951.56C3199.61,1951.56 3179.11,1951.98 3163.05,1952.83C3160.52,1953.25 3157.56,1953.46 3154.18,1953.46C3148.26,1953.46 3145.3,1951.56 3145.3,1947.75C3145.3,1943.95 3150.16,1941.84 3159.88,1941.41C3183.13,1940.57 3196.86,1938.46 3201.09,1935.08C3205.31,1931.69 3207.43,1921.55 3207.43,1904.65L3207.43,1770.89C3203.2,1761.59 3190.95,1736.87 3170.66,1696.72L3107.27,1571.2C3100.93,1558.94 3093.32,1545.21 3084.45,1529.99C3079.8,1525.77 3069.76,1523.65 3054.33,1523.65C3038.91,1523.65 3031.2,1521.33 3031.2,1516.68C3031.2,1513.3 3034.58,1511.61 3041.34,1511.61C3050.21,1511.61 3067.96,1512.03 3094.59,1512.88C3109.8,1513.3 3120.79,1513.51 3127.55,1513.51L3201.09,1512.88C3204.05,1512.45 3207.43,1512.24 3211.23,1512.24C3218.84,1512.24 3222.64,1514.36 3222.64,1518.58C3222.64,1522.39 3215.46,1524.29 3201.09,1524.29C3174.89,1524.29 3161.78,1528.94 3161.78,1538.24C3161.78,1545.42 3175.1,1574.37 3201.72,1625.08L3259.41,1734.75C3269.97,1715.74 3282.02,1692.28 3295.54,1664.39L3332.95,1588.95C3346.89,1561.9 3353.87,1544.15 3353.87,1535.7C3353.87,1530.2 3350.27,1527.04 3343.09,1526.19C3328.3,1524.08 3318.37,1523.23 3313.29,1523.65C3304,1524.08 3299.35,1521.96 3299.35,1517.32C3299.35,1513.93 3303.36,1512.24 3311.39,1512.24L3348.16,1512.88L3369.08,1512.24C3412.19,1510.98 3433.74,1513.09 3433.74,1518.58Z" style="fill:rgb(71,184,232);fill-rule:nonzero;"/></g><g transform="matrix(1.29776,0,0,1.29776,-2124.91,-407.577)"><path d="M2841.65,1934.44C2841.65,1952.19 2826.86,1961.07 2797.28,1961.07C2764.31,1961.07 2738.53,1947.33 2719.93,1919.86C2711.91,1908.03 2706.73,1896.62 2704.4,1885.63C2702.08,1874.64 2698.59,1846.75 2693.94,1801.95C2691.41,1774.9 2682.74,1755.78 2667.95,1744.58C2653.16,1733.38 2629.07,1727.36 2595.68,1726.51L2595.68,1926.2C2595.68,1934.65 2602.45,1939.93 2615.97,1942.05C2619.77,1942.47 2629.49,1942.89 2645.13,1943.32C2650.62,1943.32 2653.37,1945.01 2653.37,1948.39C2653.37,1952.19 2649.78,1954.09 2642.6,1954.09L2634.99,1954.09C2631.18,1953.67 2612.8,1953.46 2579.84,1953.46C2573.5,1953.46 2562.72,1953.67 2547.51,1954.09L2493.62,1954.09C2484.32,1954.09 2479.68,1952.19 2479.68,1948.39C2479.68,1945.43 2485.8,1943.74 2498.06,1943.32C2517.92,1942.89 2528.7,1940.36 2530.39,1935.71C2532.08,1933.6 2532.93,1925.36 2532.93,1910.99L2532.93,1561.06C2532.93,1544.15 2531.13,1534.01 2527.54,1530.63C2523.95,1527.25 2513.06,1525.35 2494.89,1524.92C2484.32,1524.92 2479.04,1523.02 2479.04,1519.22C2479.04,1514.99 2482.42,1512.88 2489.18,1512.88C2490.45,1512.88 2492.35,1513.09 2494.89,1513.51L2579.2,1515.41C2587.66,1515.41 2599.49,1515.2 2614.7,1514.78C2631.61,1513.93 2643.44,1513.51 2650.2,1513.51C2689.51,1513.51 2720.68,1522.28 2743.71,1539.82C2766.74,1557.36 2778.26,1581.13 2778.26,1611.14C2778.26,1640.72 2766.42,1665.13 2742.76,1684.36C2719.09,1703.59 2686.97,1714.89 2646.4,1718.27C2642.6,1718.69 2640.48,1719.33 2640.06,1720.17C2640.06,1721.86 2642.17,1722.71 2646.4,1722.71C2690.77,1730.32 2721.31,1745.85 2738,1769.3C2754.7,1792.76 2765.79,1835.12 2771.28,1896.4C2774.66,1931.06 2786.5,1948.39 2806.78,1948.39C2813.12,1948.39 2816.29,1947.12 2816.29,1944.58C2816.29,1944.16 2816.08,1943.74 2815.66,1943.32C2813.55,1938.67 2812.49,1934.86 2812.49,1931.9C2812.49,1923.03 2817.14,1918.59 2826.43,1918.59C2836.58,1918.59 2841.65,1923.88 2841.65,1934.44ZM2710.43,1616.84C2710.43,1556.41 2684.22,1526.19 2631.82,1526.19C2617.87,1526.19 2608.36,1528.09 2603.29,1531.89C2598.22,1535.7 2595.68,1542.46 2595.68,1552.18L2595.68,1713.2C2636.26,1713.62 2665.52,1706.23 2683.48,1691.01C2701.45,1675.8 2710.43,1651.07 2710.43,1616.84Z" style="fill:rgb(250,163,53);fill-rule:nonzero;"/></g><g transform="matrix(1.29776,0,0,1.29776,-2121.55,-407.577)"><path d="M2250.19,1519.22C2250.19,1522.6 2245.76,1524.29 2236.88,1524.29C2220.82,1524.29 2210.89,1524.82 2207.09,1525.87C2203.28,1526.93 2201.06,1528.73 2200.43,1531.26C2199.8,1533.8 2199.48,1542.04 2199.48,1555.99L2199.48,1759.48C2199.48,1759.48 2199.69,1779.13 2200.11,1818.43C2200.53,1847.59 2200.53,1871.47 2200.11,1890.07C2199.27,1916.27 2197.37,1935.92 2194.41,1949.02C2189.34,1971 2176.87,1989.91 2157.01,2005.76C2137.14,2021.61 2116.01,2029.53 2093.61,2029.53C2077.13,2029.53 2063.82,2025.2 2053.67,2016.54C2043.53,2007.87 2038.46,1996.57 2038.46,1982.62C2038.46,1958.53 2050.29,1946.49 2073.96,1946.49C2083.68,1946.49 2091.82,1949.44 2098.37,1955.36C2104.92,1961.28 2108.19,1968.88 2108.19,1978.18C2108.19,1986.21 2105.45,1993.4 2099.95,1999.74C2096.15,2004.38 2094.25,2007.98 2094.25,2010.51C2094.25,2014.32 2097.41,2016.22 2103.76,2016.22C2117.28,2016.22 2126.79,2007.98 2132.28,1991.5C2135.24,1982.62 2136.72,1956.63 2136.72,1913.52L2136.72,1551.55C2136.72,1538.02 2132.7,1529.57 2124.67,1526.19C2120.87,1524.92 2110.73,1524.29 2094.25,1524.29C2086.64,1524.29 2081.88,1523.87 2079.98,1523.02C2078.08,1522.17 2077.13,1520.91 2077.13,1519.22C2077.13,1514.99 2080.51,1512.88 2087.27,1512.88C2088.54,1512.88 2094.25,1513.09 2104.39,1513.51C2117.49,1513.93 2128.27,1514.14 2136.72,1514.14L2229.91,1512.88C2243.43,1512.88 2250.19,1514.99 2250.19,1519.22Z" style="fill:rgb(238,71,146);fill-rule:nonzero;"/></g></g></g></g></g></svg>